<?xml version="1.0" encoding="UTF-8"?>
<svg width="180" height="60" viewBox="0 0 180 60" fill="none" xmlns="http://www.w3.org/2000/svg">
  <!-- Background Rectangle with Gradient -->
  <rect width="180" height="60" rx="8" fill="url(#logo_gradient)"/>
  
  <!-- FYLR Text -->
  <path d="M30 15H50V22H40V26H48V33H40V45H30V15Z" fill="white"/>
  <path d="M60 15H80V22H70V45H60V15Z" fill="white"/>
  <path d="M90 15H100V35H120V45H90V15Z" fill="white"/>
  <path d="M130 15H150V22H140V26H148V33H140V38H150V45H130V15Z" fill="white"/>
  
  <!-- Decorative Elements -->
  <circle cx="40" cy="45" r="4" fill="#f4a261"/>
  <circle cx="70" cy="45" r="4" fill="#f4a261"/>
  <circle cx="100" cy="45" r="4" fill="#f4a261"/>
  <circle cx="140" cy="45" r="4" fill="#f4a261"/>
  
  <!-- Linear Gradient Definition -->
  <defs>
    <linearGradient id="logo_gradient" x1="0" y1="0" x2="180" y2="60" gradientUnits="userSpaceOnUse">
      <stop offset="0" stop-color="#2A9D8F"/>
      <stop offset="1" stop-color="#264653"/>
    </linearGradient>
  </defs>
</svg>