<?xml version="1.0" encoding="UTF-8"?>
<svg width="200" height="80" viewBox="0 0 200 80" fill="none" xmlns="http://www.w3.org/2000/svg">
  <!-- Background Gradient -->
  <rect width="200" height="80" rx="8" fill="url(#paint0_linear)" />
  
  <!-- FYLR Text -->
  <path d="M44 30H68V36H52V42H66V48H52V60H44V30Z" fill="white"/>
  <path d="M70 30H94V36H78V42H78V60H70V30Z" fill="white"/>
  <path d="M96 30H104V52H120V60H96V30Z" fill="white"/>
  <path d="M122 30H146V36H130V42H142V48H130V54H146V60H122V30Z" fill="white"/>
  
  <!-- Tagline -->
  <text x="45" y="70" font-family="Montserrat, sans-serif" font-size="10" font-weight="500" fill="white" opacity="0.9">by federalfundingclub.com</text>
  
  <!-- Decorative Elements -->
  <circle cx="30" cy="40" r="15" fill="#F4A261" fill-opacity="0.9"/>
  <path d="M24 40L30 46L38 36" stroke="white" stroke-width="2" stroke-linecap="round" stroke-linejoin="round"/>
  
  <!-- Linear Gradient Definition -->
  <defs>
    <linearGradient id="paint0_linear" x1="0" y1="0" x2="200" y2="80" gradientUnits="userSpaceOnUse">
      <stop offset="0" stop-color="#2A9D8F"/>
      <stop offset="1" stop-color="#66B2B2"/>
    </linearGradient>
  </defs>
</svg>