<?xml version="1.0" encoding="UTF-8"?>
<svg width="600" height="400" viewBox="0 0 600 400" fill="none" xmlns="http://www.w3.org/2000/svg">
  <!-- Background Shape -->
  <path d="M50 350C50 350 150 300 275 330C400 360 550 320 550 320V50C550 50 450 80 325 50C200 20 50 70 50 70V350Z" fill="#E6F0FF" />
  
  <!-- Main Document -->
  <rect x="150" y="100" width="300" height="220" rx="8" fill="white" stroke="#0052CC" stroke-width="2" />
  
  <!-- Document Header -->
  <rect x="150" y="100" width="300" height="40" rx="8" fill="#0052CC" />
  <text x="170" y="125" font-family="Arial, sans-serif" font-size="16" font-weight="bold" fill="white">FORM 1120 - U.S. Corporation Tax Return</text>
  
  <!-- Document Content -->
  <rect x="170" y="160" width="260" height="10" rx="2" fill="#E2E8F0" />
  <rect x="170" y="180" width="180" height="10" rx="2" fill="#E2E8F0" />
  <rect x="170" y="200" width="260" height="10" rx="2" fill="#E2E8F0" />
  <rect x="170" y="220" width="220" height="10" rx="2" fill="#E2E8F0" />
  <rect x="170" y="240" width="260" height="10" rx="2" fill="#E2E8F0" />
  <rect x="170" y="260" width="180" height="10" rx="2" fill="#E2E8F0" />
  <rect x="170" y="280" width="240" height="10" rx="2" fill="#E2E8F0" />
  
  <!-- Magnifying Glass -->
  <circle cx="400" cy="130" r="60" fill="#FF6B35" fill-opacity="0.1" />
  <circle cx="400" cy="130" r="25" fill="white" stroke="#0052CC" stroke-width="2" />
  <line x1="418" y1="148" x2="438" y2="168" stroke="#0052CC" stroke-width="4" stroke-linecap="round" />
  
  <!-- Calculator -->
  <rect x="80" y="180" width="70" height="100" rx="5" fill="#F5F7FA" stroke="#0052CC" stroke-width="2" />
  <rect x="90" y="190" width="50" height="20" rx="2" fill="white" stroke="#0052CC" stroke-width="1" />
  <rect x="90" y="220" width="15" height="15" rx="2" fill="white" stroke="#0052CC" stroke-width="1" />
  <rect x="112.5" y="220" width="15" height="15" rx="2" fill="white" stroke="#0052CC" stroke-width="1" />
  <rect x="135" y="220" width="15" height="15" rx="2" fill="white" stroke="#0052CC" stroke-width="1" />
  <rect x="90" y="242.5" width="15" height="15" rx="2" fill="white" stroke="#0052CC" stroke-width="1" />
  <rect x="112.5" y="242.5" width="15" height="15" rx="2" fill="white" stroke="#0052CC" stroke-width="1" />
  <rect x="135" y="242.5" width="15" height="15" rx="2" fill="white" stroke="#0052CC" stroke-width="1" />
  <rect x="90" y="265" width="15" height="15" rx="2" fill="white" stroke="#0052CC" stroke-width="1" />
  <rect x="112.5" y="265" width="15" height="15" rx="2" fill="white" stroke="#0052CC" stroke-width="1" />
  <rect x="135" y="265" width="15" height="15" rx="2" fill="white" stroke="#0052CC" stroke-width="1" />
  
  <!-- Coins -->
  <circle cx="500" cy="250" r="15" fill="#FFD700" stroke="#0052CC" stroke-width="1" />
  <circle cx="515" cy="260" r="15" fill="#FFD700" stroke="#0052CC" stroke-width="1" />
  <circle cx="490" cy="265" r="15" fill="#FFD700" stroke="#0052CC" stroke-width="1" />
  <circle cx="505" cy="280" r="15" fill="#FFD700" stroke="#0052CC" stroke-width="1" />
  
  <!-- Dollar Sign -->
  <text x="500" y="255" font-family="Arial, sans-serif" font-size="18" font-weight="bold" fill="#0052CC">$</text>
  <text x="515" y="265" font-family="Arial, sans-serif" font-size="18" font-weight="bold" fill="#0052CC">$</text>
  <text x="490" y="270" font-family="Arial, sans-serif" font-size="18" font-weight="bold" fill="#0052CC">$</text>
  <text x="505" y="285" font-family="Arial, sans-serif" font-size="18" font-weight="bold" fill="#0052CC">$</text>
  
  <!-- Pen -->
  <line x1="460" y1="160" x2="480" y2="180" stroke="#0052CC" stroke-width="3" stroke-linecap="round" />
  <path d="M460 160L450 170L455 175L465 165L460 160Z" fill="#FF6B35" stroke="#0052CC" stroke-width="1" />
  
  <!-- Title Text -->
  <text x="300" y="70" font-family="Arial, sans-serif" font-size="24" font-weight="bold" fill="#0052CC" text-anchor="middle">DIY Business Tax Tool</text>
</svg>