<?xml version="1.0" encoding="UTF-8"?>
<svg width="500" height="400" viewBox="0 0 500 400" fill="none" xmlns="http://www.w3.org/2000/svg">
  <!-- Main document background -->
  <rect x="100" y="50" width="300" height="300" rx="10" fill="#f8f9fa" stroke="#e9ecef" stroke-width="2"/>
  
  <!-- Document header -->
  <rect x="120" y="70" width="260" height="30" rx="5" fill="#FF6B00" opacity="0.8"/>
  <rect x="130" y="80" width="100" height="10" rx="2" fill="white"/>
  <rect x="240" y="80" width="80" height="10" rx="2" fill="white"/>
  
  <!-- Document body content -->
  <rect x="120" y="120" width="260" height="10" rx="2" fill="#adb5bd"/>
  <rect x="120" y="140" width="200" height="10" rx="2" fill="#adb5bd"/>
  <rect x="120" y="160" width="240" height="10" rx="2" fill="#adb5bd"/>
  <rect x="120" y="180" width="180" height="10" rx="2" fill="#adb5bd"/>
  
  <!-- Form fields -->
  <rect x="120" y="210" width="120" height="30" rx="4" fill="white" stroke="#ced4da" stroke-width="1"/>
  <rect x="260" y="210" width="120" height="30" rx="4" fill="white" stroke="#ced4da" stroke-width="1"/>
  <rect x="120" y="250" width="260" height="30" rx="4" fill="white" stroke="#ced4da" stroke-width="1"/>
  
  <!-- Submit button -->
  <rect x="120" y="300" width="100" height="30" rx="15" fill="#FF6B00"/>
  <rect x="150" y="310" width="40" height="10" rx="2" fill="white"/>
  
  <!-- AI assistant element -->
  <circle cx="380" cy="330" r="30" fill="#264653"/>
  <rect x="365" y="320" width="30" height="5" rx="2" fill="white"/>
  <rect x="365" y="330" width="30" height="5" rx="2" fill="white"/>
  <rect x="365" y="340" width="30" height="5" rx="2" fill="white"/>
  
  <!-- Decorative elements -->
  <circle cx="80" cy="100" r="15" fill="#FF6B00" opacity="0.6"/>
  <circle cx="60" cy="200" r="25" fill="#FF6B00" opacity="0.4"/>
  <circle cx="90" cy="280" r="20" fill="#FF6B00" opacity="0.5"/>
  <circle cx="420" cy="90" r="18" fill="#264653" opacity="0.3"/>
  <circle cx="440" cy="180" r="22" fill="#264653" opacity="0.4"/>
  <circle cx="410" cy="260" r="15" fill="#264653" opacity="0.5"/>
</svg>