<?xml version="1.0" encoding="UTF-8"?>
<svg width="800" height="600" viewBox="0 0 800 600" fill="none" xmlns="http://www.w3.org/2000/svg">
  <!-- Background Elements -->
  <path d="M0 300C0 300 200 200 400 300C600 400 800 300 800 300V600H0V300Z" fill="#F8F9FD"/>
  <path d="M0 350C0 350 200 250 400 350C600 450 800 350 800 350V600H0V350Z" fill="#E0F5F2"/>
  
  <!-- Decorative Wave Pattern -->
  <path d="M0 400C0 400 100 370 200 400C300 430 400 370 500 400C600 430 700 380 800 400V600H0V400Z" fill="#2A9D8F" fill-opacity="0.1"/>
  
  <!-- Main Dashboard UI -->
  <rect x="150" y="100" width="500" height="350" rx="12" fill="white" stroke="#2A9D8F" stroke-width="2"/>
  
  <!-- Dashboard Header -->
  <rect x="150" y="100" width="500" height="60" rx="12" fill="url(#header_gradient)"/>
  <text x="180" y="138" font-family="Montserrat, sans-serif" font-size="20" font-weight="bold" fill="white">FYLR Dashboard</text>
  
  <!-- Dashboard Navigation -->
  <rect x="150" y="160" width="120" height="290" fill="#F8F9FD"/>
  <circle cx="190" cy="200" r="20" fill="#F4A261" fill-opacity="0.2"/>
  <path d="M180 200L188 208L200 194" stroke="#F4A261" stroke-width="3" stroke-linecap="round" stroke-linejoin="round"/>
  <text x="220" y="205" font-family="Montserrat, sans-serif" font-size="14" fill="#264653">Forms</text>
  
  <circle cx="190" cy="250" r="20" fill="#2A9D8F" fill-opacity="0.2"/>
  <path d="M184 250H196M190 244V256" stroke="#2A9D8F" stroke-width="3" stroke-linecap="round"/>
  <text x="220" y="255" font-family="Montserrat, sans-serif" font-size="14" fill="#264653">Strategy</text>
  
  <circle cx="190" cy="300" r="20" fill="#E76F51" fill-opacity="0.2"/>
  <path d="M184 300H196M190 294L190 306" stroke="#E76F51" stroke-width="3" stroke-linecap="round" transform="rotate(45 190 300)"/>
  <text x="220" y="305" font-family="Montserrat, sans-serif" font-size="14" fill="#264653">Letters</text>
  
  <!-- Main Content Area - Analytics -->
  <rect x="290" y="180" width="340" height="120" rx="8" fill="#F8F9FD" stroke="#E0E0E0" stroke-width="1"/>
  <text x="310" y="210" font-family="Montserrat, sans-serif" font-size="16" font-weight="600" fill="#264653">Tax Savings Overview</text>
  
  <!-- Bar Chart -->
  <rect x="320" y="240" width="40" height="40" fill="#2A9D8F" rx="4"/>
  <rect x="370" y="220" width="40" height="60" fill="#2A9D8F" rx="4"/>
  <rect x="420" y="200" width="40" height="80" fill="#2A9D8F" rx="4"/>
  <rect x="470" y="230" width="40" height="50" fill="#2A9D8F" rx="4"/>
  <rect x="520" y="180" width="40" height="100" fill="#F4A261" rx="4"/>
  <text x="520" y="170" font-family="Montserrat, sans-serif" font-size="12" font-weight="600" fill="#F4A261">+28%</text>
  
  <!-- Recent Activity Section -->
  <rect x="290" y="320" width="340" height="110" rx="8" fill="#F8F9FD" stroke="#E0E0E0" stroke-width="1"/>
  <text x="310" y="350" font-family="Montserrat, sans-serif" font-size="16" font-weight="600" fill="#264653">Recent Activity</text>
  
  <!-- Activity Items -->
  <circle cx="330" cy="380" r="15" fill="#2A9D8F" fill-opacity="0.2"/>
  <text x="330" y="385" font-family="Montserrat, sans-serif" font-size="12" font-weight="bold" fill="#2A9D8F" text-anchor="middle">F</text>
  <text x="360" y="385" font-family="Montserrat, sans-serif" font-size="14" fill="#264653">Form 1120 completed</text>
  <text x="580" y="385" font-family="Montserrat, sans-serif" font-size="12" fill="#6D7A8C" text-anchor="end">Today</text>
  
  <!-- 3D Elements -->
  <rect x="600" y="80" width="80" height="80" rx="8" fill="#F4A261" transform="rotate(-15 600 80)"/>
  <text x="625" y="120" font-family="Montserrat, sans-serif" font-size="16" font-weight="bold" fill="white" text-anchor="middle">1120</text>
  
  <rect x="100" y="140" width="60" height="60" rx="8" fill="#2A9D8F" transform="rotate(15 100 140)"/>
  <text x="125" y="170" font-family="Montserrat, sans-serif" font-size="16" font-weight="bold" fill="white" text-anchor="middle">$</text>
  
  <rect x="670" y="450" width="70" height="70" rx="8" fill="#E76F51" transform="rotate(-10 670 450)"/>
  <text x="700" y="480" font-family="Montserrat, sans-serif" font-size="16" font-weight="bold" fill="white" text-anchor="middle">IRS</text>
  
  <!-- Floating Money Icons -->
  <circle cx="700" cy="250" r="20" fill="#F4A261" fill-opacity="0.2"/>
  <text x="700" y="255" font-family="Montserrat, sans-serif" font-size="20" font-weight="bold" fill="#F4A261" text-anchor="middle">$</text>
  
  <circle cx="80" cy="280" r="25" fill="#F4A261" fill-opacity="0.2"/>
  <text x="80" y="285" font-family="Montserrat, sans-serif" font-size="25" font-weight="bold" fill="#F4A261" text-anchor="middle">$</text>
  
  <circle cx="750" cy="360" r="15" fill="#F4A261" fill-opacity="0.2"/>
  <text x="750" y="365" font-family="Montserrat, sans-serif" font-size="15" font-weight="bold" fill="#F4A261" text-anchor="middle">$</text>
  
  <!-- Gradients Definition -->
  <defs>
    <linearGradient id="header_gradient" x1="150" y1="100" x2="650" y2="160" gradientUnits="userSpaceOnUse">
      <stop offset="0" stop-color="#2A9D8F"/>
      <stop offset="1" stop-color="#66B2B2"/>
    </linearGradient>
  </defs>
</svg>