<?xml version="1.0" encoding="UTF-8"?>
<svg width="200" height="200" viewBox="0 0 200 200" fill="none" xmlns="http://www.w3.org/2000/svg">
  <!-- Background Circle -->
  <circle cx="100" cy="100" r="90" fill="#E6F0FF" />
  
  <!-- Light Bulb Base -->
  <path d="M85 140H115V155C115 162.732 108.732 169 101 169H99C91.268 169 85 162.732 85 155V140Z" fill="#0052CC" />
  
  <!-- Light Bulb Threads -->
  <rect x="90" y="140" width="20" height="5" fill="#718096" />
  <rect x="90" y="150" width="20" height="5" fill="#718096" />
  
  <!-- Light Bulb Glass -->
  <path d="M70 85C70 63.402 87.402 46 109 46C130.598 46 148 63.402 148 85C148 98.474 141.21 110.141 130.857 117H87.143C76.79 110.141 70 98.474 70 85Z" fill="#FFD700" fill-opacity="0.5" stroke="#0052CC" stroke-width="2" />
  
  <!-- Light Rays -->
  <line x1="100" y1="25" x2="100" y2="40" stroke="#FF6B35" stroke-width="3" stroke-linecap="round" />
  <line x1="135" y1="35" x2="125" y2="50" stroke="#FF6B35" stroke-width="3" stroke-linecap="round" />
  <line x1="155" y1="65" x2="140" y2="75" stroke="#FF6B35" stroke-width="3" stroke-linecap="round" />
  <line x1="65" y1="35" x2="75" y2="50" stroke="#FF6B35" stroke-width="3" stroke-linecap="round" />
  <line x1="45" y1="65" x2="60" y2="75" stroke="#FF6B35" stroke-width="3" stroke-linecap="round" />
  
  <!-- Dollar Signs inside Light Bulb -->
  <text x="100" y="75" font-family="Arial, sans-serif" font-size="14" font-weight="bold" fill="#0052CC" text-anchor="middle">$</text>
  <text x="120" y="90" font-family="Arial, sans-serif" font-size="14" font-weight="bold" fill="#0052CC" text-anchor="middle">$</text>
  <text x="90" y="100" font-family="Arial, sans-serif" font-size="14" font-weight="bold" fill="#0052CC" text-anchor="middle">$</text>
  <text x="110" y="110" font-family="Arial, sans-serif" font-size="14" font-weight="bold" fill="#0052CC" text-anchor="middle">$</text>
  
  <!-- Gear Elements - Top -->
  <circle cx="100" cy="85" r="25" fill="white" stroke="#0052CC" stroke-width="2" />
  
  <!-- Gear Teeth -->
  <rect x="98" y="50" width="4" height="10" fill="#0052CC" />
  <rect x="98" y="110" width="4" height="10" fill="#0052CC" />
  <rect x="75" y="83" width="10" height="4" fill="#0052CC" />
  <rect x="115" y="83" width="10" height="4" fill="#0052CC" />
  
  <rect x="83" y="66" width="4" height="10" transform="rotate(-45 83 66)" fill="#0052CC" />
  <rect x="117" y="100" width="4" height="10" transform="rotate(-45 117 100)" fill="#0052CC" />
  <rect x="117" y="66" width="4" height="10" transform="rotate(45 117 66)" fill="#0052CC" />
  <rect x="83" y="100" width="4" height="10" transform="rotate(45 83 100)" fill="#0052CC" />
  
  <!-- Dollar Sign in Center -->
  <text x="100" y="90" font-family="Arial, sans-serif" font-size="24" font-weight="bold" fill="#FF6B35" text-anchor="middle">$</text>
</svg>