<?xml version="1.0" encoding="UTF-8"?>
<svg width="240" height="240" viewBox="0 0 240 240" xmlns="http://www.w3.org/2000/svg">
  <!-- Background -->
  <rect width="240" height="240" fill="none"/>
  
  <!-- Lightbulb -->
  <circle cx="120" cy="90" r="40" fill="#ffc107" stroke="#fd7e14" stroke-width="2"/>
  <path d="M120,50 L120,20" stroke="#fd7e14" stroke-width="3" stroke-linecap="round"/>
  <path d="M120,160 L120,130" stroke="#fd7e14" stroke-width="3" stroke-linecap="round"/>
  <path d="M170,90 L200,90" stroke="#fd7e14" stroke-width="3" stroke-linecap="round"/>
  <path d="M70,90 L40,90" stroke="#fd7e14" stroke-width="3" stroke-linecap="round"/>
  <path d="M155,55 L175,35" stroke="#fd7e14" stroke-width="3" stroke-linecap="round"/>
  <path d="M85,55 L65,35" stroke="#fd7e14" stroke-width="3" stroke-linecap="round"/>
  <path d="M155,125 L175,145" stroke="#fd7e14" stroke-width="3" stroke-linecap="round"/>
  <path d="M85,125 L65,145" stroke="#fd7e14" stroke-width="3" stroke-linecap="round"/>
  
  <!-- Document/Strategy List -->
  <rect x="70" y="140" width="100" height="80" fill="white" stroke="#0d6efd" stroke-width="2" rx="5" ry="5"/>
  
  <!-- List Items -->
  <rect x="80" y="155" width="80" height="6" fill="#e9ecef" rx="2" ry="2"/>
  <rect x="80" y="170" width="80" height="6" fill="#e9ecef" rx="2" ry="2"/>
  <rect x="80" y="185" width="80" height="6" fill="#e9ecef" rx="2" ry="2"/>
  <rect x="80" y="200" width="60" height="6" fill="#e9ecef" rx="2" ry="2"/>
  
  <!-- Checkmarks -->
  <circle cx="170" cy="155" r="5" fill="#28a745"/>
  <path d="M166,155 L169,158 L174,152" stroke="white" stroke-width="1.5" fill="none" stroke-linecap="round" stroke-linejoin="round"/>
  
  <circle cx="170" cy="170" r="5" fill="#28a745"/>
  <path d="M166,170 L169,173 L174,167" stroke="white" stroke-width="1.5" fill="none" stroke-linecap="round" stroke-linejoin="round"/>
  
  <circle cx="170" cy="185" r="5" fill="#28a745"/>
  <path d="M166,185 L169,188 L174,182" stroke="white" stroke-width="1.5" fill="none" stroke-linecap="round" stroke-linejoin="round"/>
</svg>