<?xml version="1.0" encoding="UTF-8"?>
<svg width="800" height="500" viewBox="0 0 800 500" fill="none" xmlns="http://www.w3.org/2000/svg">
  <!-- Main Document -->
  <rect x="100" y="50" width="450" height="400" rx="8" fill="#FFFFFF" stroke="#E6E6E6" stroke-width="2"/>
  <rect x="100" y="50" width="450" height="60" rx="8" fill="#264653"/>
  <text x="130" y="85" font-family="Arial, sans-serif" font-size="18" font-weight="bold" fill="#FFFFFF">Form 1120: U.S. Corporation Tax Return</text>
  
  <!-- Form Header -->
  <rect x="130" y="130" width="390" height="20" rx="2" fill="#F0F0F0"/>
  <rect x="130" y="160" width="290" height="20" rx="2" fill="#F0F0F0"/>
  <rect x="130" y="190" width="390" height="20" rx="2" fill="#F0F0F0"/>
  
  <!-- Form Fields -->
  <rect x="130" y="240" width="180" height="30" rx="4" fill="#F0F0F0"/>
  <rect x="340" y="240" width="180" height="30" rx="4" fill="#F0F0F0"/>
  
  <rect x="130" y="290" width="180" height="30" rx="4" fill="#F0F0F0"/>
  <rect x="340" y="290" width="180" height="30" rx="4" fill="#F0F0F0"/>
  
  <rect x="130" y="340" width="180" height="30" rx="4" fill="#F0F0F0"/>
  <rect x="340" y="340" width="180" height="30" rx="4" fill="#F0F0F0"/>
  
  <rect x="130" y="390" width="180" height="30" rx="4" fill="#F0F0F0"/>
  <rect x="340" y="390" width="180" height="30" rx="4" fill="#F0F0F0"/>
  
  <!-- Stylized Filing Elements -->
  <circle cx="650" y="150" r="80" fill="#FF6B00" opacity="0.1"/>
  <circle cx="650" y="150" r="60" fill="#FF6B00" opacity="0.2"/>
  <circle cx="650" y="150" r="40" fill="#FF6B00" opacity="0.3"/>
  
  <!-- Checkmark Icon -->
  <path d="M640 150 L650 160 L670 130" stroke="#FF6B00" stroke-width="8" stroke-linecap="round" stroke-linejoin="round"/>
  
  <!-- Progress Lines -->
  <rect x="600" y="250" width="100" height="10" rx="5" fill="#E6E6E6"/>
  <rect x="600" y="250" width="75" height="10" rx="5" fill="#FF6B00"/>
  
  <rect x="600" y="280" width="100" height="10" rx="5" fill="#E6E6E6"/>
  <rect x="600" y="280" width="90" height="10" rx="5" fill="#FF6B00"/>
  
  <rect x="600" y="310" width="100" height="10" rx="5" fill="#E6E6E6"/>
  <rect x="600" y="310" width="60" height="10" rx="5" fill="#FF6B00"/>
  
  <text x="605" y="240" font-family="Arial, sans-serif" font-size="14" fill="#4A5568">Progress</text>
  
  <!-- Simple Decorative Elements -->
  <circle cx="650" y="370" r="30" fill="#264653" opacity="0.8"/>
  <text x="635" y="375" font-family="Arial, sans-serif" font-size="14" font-weight="bold" fill="#FFFFFF">PDF</text>
  
  <circle cx="700" y="370" r="20" fill="#FF6B00" opacity="0.8"/>
  <text x="695" y="375" font-family="Arial, sans-serif" font-size="14" font-weight="bold" fill="#FFFFFF">$</text>
</svg>