<?xml version="1.0" encoding="UTF-8"?>
<svg width="800" height="500" viewBox="0 0 800 500" fill="none" xmlns="http://www.w3.org/2000/svg">
  <!-- Dashboard Background -->
  <rect x="50" y="50" width="700" height="400" rx="15" fill="#FFFFFF" stroke="#E6E6E6" stroke-width="2"/>
  
  <!-- Dashboard Header -->
  <rect x="50" y="50" width="700" height="60" rx="15" fill="#264653"/>
  <text x="80" y="85" font-family="Arial, sans-serif" font-size="20" font-weight="bold" fill="#FFFFFF">.fylr Dashboard</text>
  
  <!-- Sidebar -->
  <rect x="50" y="110" width="160" height="340" fill="#F5F7FA"/>
  
  <!-- Sidebar Menu Items -->
  <rect x="65" y="130" width="130" height="40" rx="6" fill="#FF6B00" opacity="0.9"/>
  <text x="95" y="155" font-family="Arial, sans-serif" font-size="14" fill="#FFFFFF">Dashboard</text>
  
  <rect x="65" y="180" width="130" height="40" rx="6" fill="#F5F7FA" stroke="#E6E6E6" stroke-width="1"/>
  <text x="95" y="205" font-family="Arial, sans-serif" font-size="14" fill="#4A5568">Tax Forms</text>
  
  <rect x="65" y="230" width="130" height="40" rx="6" fill="#F5F7FA" stroke="#E6E6E6" stroke-width="1"/>
  <text x="95" y="255" font-family="Arial, sans-serif" font-size="14" fill="#4A5568">Strategies</text>
  
  <rect x="65" y="280" width="130" height="40" rx="6" fill="#F5F7FA" stroke="#E6E6E6" stroke-width="1"/>
  <text x="95" y="305" font-family="Arial, sans-serif" font-size="14" fill="#4A5568">IRS Letters</text>
  
  <rect x="65" y="330" width="130" height="40" rx="6" fill="#F5F7FA" stroke="#E6E6E6" stroke-width="1"/>
  <text x="95" y="355" font-family="Arial, sans-serif" font-size="14" fill="#4A5568">Settings</text>
  
  <!-- Main Content Area -->
  <rect x="230" y="130" width="500" height="120" rx="8" fill="#FFFFFF" stroke="#E6E6E6" stroke-width="1"/>
  
  <!-- Progress Bar Area -->
  <rect x="250" y="150" width="460" height="20" rx="10" fill="#E6E6E6"/>
  <rect x="250" y="150" width="345" height="20" rx="10" fill="#FF6B00"/>
  <text x="250" y="190" font-family="Arial, sans-serif" font-size="14" fill="#4A5568">Form 1120 Completion: 75%</text>
  
  <!-- Card Section -->
  <rect x="230" y="270" width="235" height="160" rx="8" fill="#FFFFFF" stroke="#E6E6E6" stroke-width="1"/>
  <rect x="250" y="290" width="195" height="15" rx="3" fill="#F0F0F0"/>
  <rect x="250" y="315" width="140" height="15" rx="3" fill="#F0F0F0"/>
  <rect x="250" y="340" width="195" height="15" rx="3" fill="#F0F0F0"/>
  <rect x="250" y="365" width="120" height="15" rx="3" fill="#F0F0F0"/>
  <rect x="250" y="390" width="60" height="25" rx="4" fill="#FF6B00"/>
  
  <rect x="495" y="270" width="235" height="160" rx="8" fill="#FFFFFF" stroke="#E6E6E6" stroke-width="1"/>
  <rect x="515" y="290" width="195" height="15" rx="3" fill="#F0F0F0"/>
  <rect x="515" y="315" width="140" height="15" rx="3" fill="#F0F0F0"/>
  <rect x="515" y="340" width="195" height="15" rx="3" fill="#F0F0F0"/>
  <rect x="515" y="365" width="120" height="15" rx="3" fill="#F0F0F0"/>
  <rect x="515" y="390" width="60" height="25" rx="4" fill="#FF6B00"/>
  
  <!-- Decorative Elements -->
  <circle cx="700" y="85" r="15" fill="#FF6B00" opacity="0.7"/>
  <circle cx="650" y="85" r="15" fill="#FF6B00" opacity="0.5"/>
</svg>