<?xml version="1.0" encoding="UTF-8"?>
<svg width="240" height="240" viewBox="0 0 240 240" xmlns="http://www.w3.org/2000/svg">
  <!-- Background -->
  <rect width="240" height="240" fill="none"/>
  
  <!-- Stack of Forms -->
  <rect x="40" y="100" width="160" height="120" fill="#e9ecef" stroke="#adb5bd" stroke-width="2" rx="5" ry="5"/>
  <rect x="50" y="80" width="160" height="120" fill="#f8f9fa" stroke="#adb5bd" stroke-width="2" rx="5" ry="5"/>
  <rect x="60" y="60" width="160" height="120" fill="white" stroke="#0d6efd" stroke-width="2" rx="5" ry="5"/>
  
  <!-- Form Content for Top Form -->
  <rect x="80" y="80" width="120" height="10" fill="#e9ecef" rx="2" ry="2"/>
  <rect x="80" y="100" width="80" height="8" fill="#e9ecef" rx="2" ry="2"/>
  <rect x="80" y="115" width="120" height="8" fill="#e9ecef" rx="2" ry="2"/>
  <rect x="80" y="130" width="100" height="8" fill="#e9ecef" rx="2" ry="2"/>
  <rect x="80" y="145" width="60" height="8" fill="#e9ecef" rx="2" ry="2"/>
  
  <!-- Form Label -->
  <text x="75" y="75" font-family="Arial" font-size="12" font-weight="bold" fill="#0d6efd">FORM 1120</text>
  
  <!-- Checkmark Icon -->
  <circle cx="180" cy="150" r="15" fill="#28a745"/>
  <path d="M173,150 L178,155 L187,143" stroke="white" stroke-width="3" fill="none" stroke-linecap="round" stroke-linejoin="round"/>
</svg>